<?xml version="1.0" standalone="no"?>
<!DOCTYPE svg PUBLIC "-//W3C//DTD SVG 20010904//EN"
 "http://www.w3.org/TR/2001/REC-SVG-20010904/DTD/svg10.dtd">
<svg version="1.0" xmlns="http://www.w3.org/2000/svg"
 width="2000.000000pt" height="2000.000000pt" viewBox="0 0 2000.000000 2000.000000"
 preserveAspectRatio="xMidYMid meet">
<metadata>
Created by potrace 1.11, written by Peter Selinger 2001-2013
</metadata>
<g transform="translate(0.000000,2000.000000) scale(0.100000,-0.100000)"
fill="#000000" stroke="none">
<path d="M9760 16492 c-71 -4 -194 -31 -259 -56 -107 -42 -185 -108 -311 -261
-73 -89 -115 -155 -178 -280 -89 -177 -210 -335 -323 -422 -54 -41 -62 -43
-229 -68 -508 -76 -837 -170 -1170 -333 -345 -169 -535 -374 -612 -661 -30
-112 -34 -344 -7 -465 26 -122 51 -191 119 -331 66 -136 162 -284 238 -363 6
-7 12 -17 12 -22 0 -5 -33 -60 -74 -122 -181 -276 -296 -508 -424 -848 -149
-399 -166 -450 -227 -685 -50 -196 -60 -243 -87 -420 -13 -90 -16 -316 -6
-416 15 -135 58 -296 126 -469 183 -468 532 -833 1067 -1114 49 -26 91 -49 92
-50 2 -2 -12 -23 -30 -47 -118 -155 -867 -1200 -976 -1361 -146 -216 -222
-439 -214 -629 9 -220 137 -468 314 -607 146 -114 293 -169 470 -177 68 -3
110 -10 126 -20 46 -31 45 -45 -38 -430 -21 -99 -40 -191 -43 -205 -2 -14 -25
-119 -49 -235 -63 -291 -107 -529 -123 -660 -3 -22 -7 -53 -10 -70 -3 -16 -7
-115 -10 -220 -5 -213 4 -271 57 -382 42 -87 137 -186 235 -245 173 -102 403
-187 609 -224 134 -25 455 -25 564 -1 187 42 351 167 433 332 40 79 52 126
142 530 147 667 227 1019 231 1024 5 5 260 2 350 -4 38 -3 72 -9 76 -13 4 -4
45 -122 93 -262 47 -140 126 -374 175 -520 132 -391 155 -452 227 -595 109
-217 208 -348 318 -424 288 -199 758 -209 1207 -27 220 89 322 148 402 231
175 180 219 473 119 780 -28 85 -305 858 -370 1030 -37 99 -128 326 -152 380
-9 22 -30 69 -46 105 -15 36 -59 128 -98 205 -61 123 -94 215 -78 215 3 0 65
-16 136 -34 268 -71 403 -91 588 -90 480 6 838 335 852 784 5 182 -45 344
-160 517 -50 74 -154 204 -204 253 -3 3 -41 45 -85 95 -44 49 -84 95 -90 101
-5 6 -41 46 -80 89 -38 44 -135 151 -215 240 -147 163 -270 301 -303 339 -10
12 -33 37 -50 56 -18 19 -66 73 -107 120 -41 47 -81 91 -88 99 -16 17 -15 18
28 25 19 3 44 7 55 10 11 2 40 7 65 11 154 24 391 100 548 177 401 195 684
511 854 953 85 220 162 538 184 760 3 33 7 76 10 95 5 47 5 364 0 415 -3 22
-7 74 -10 115 -12 144 -22 256 -32 335 -3 22 -7 58 -10 80 -2 22 -7 51 -9 65
-3 14 -7 41 -10 60 -11 67 -15 90 -30 157 l-14 68 42 34 c70 57 209 202 264
276 100 133 186 341 212 510 13 90 11 301 -5 383 -72 380 -338 666 -880 948
-71 37 -136 73 -143 80 -15 14 -18 63 -7 119 18 97 37 287 32 328 -3 26 -18
71 -33 98 -38 71 -200 212 -344 300 -30 19 -64 39 -75 46 -50 31 -265 155
-319 183 -80 43 -373 190 -379 190 -2 0 -37 15 -78 34 -216 101 -399 169 -883
331 -384 129 -631 173 -885 157z"/>
</g>
</svg>
